<svg class="svg-icon" style="width: 1em; height: 1em;vertical-align: middle;fill: #fff;overflow: hidden;" viewBox="0 0 1024 1024" version="1.1" xmlns="http://www.w3.org/2000/svg"><path d="M864 694.848q0-22.848-16-38.848l-118.848-118.848q-16-16-38.848-16-24 0-41.152 18.282667 1.706667 1.706667 10.858667 10.581333t12.288 12.288 8.576 10.858667 7.424 14.570667 2.005333 15.722667q0 22.848-16 38.848t-38.848 16q-8.576 0-15.722667-2.005333t-14.570667-7.424-10.858667-8.576-12.288-12.288-10.581333-10.858667q-18.858667 17.706667-18.858667 41.706667 0 22.848 16 38.848l117.717333 118.293333q15.424 15.424 38.848 15.424 22.848 0 38.848-14.848l84.010667-83.434667q16-16 16-38.293333zM462.293333 292.010667q0-22.848-16-38.848l-117.717333-118.293333q-16-16-38.848-16-22.293333 0-38.848 15.424l-84.010667 83.434667q-16 16-16 38.293333 0 22.848 16 38.848l118.848 118.848q15.424 15.424 38.848 15.424 24 0 41.152-17.706667-1.706667-1.706667-10.858667-10.581333t-12.288-12.288-8.576-10.858667-7.424-14.570667-2.005333-15.722667q0-22.848 16-38.848t38.848-16q8.576 0 15.722667 2.005333t14.570667 7.424 10.858667 8.576 12.288 12.288 10.581333 10.858667q18.858667-17.706667 18.858667-41.706667zM973.717333 694.848q0 68.565333-48.576 116.010667l-84.010667 83.434667q-47.424 47.424-116.010667 47.424-69.141333 0-116.565333-48.576l-117.717333-118.293333q-47.424-47.424-47.424-115.989333 0-70.293333 50.282667-119.424l-50.282667-50.282667q-49.152 50.282667-118.848 50.282667-68.565333 0-116.565333-48l-118.848-118.848q-48-48-48-116.565333t48.576-116.010667l83.989333-83.434667q47.424-47.424 116.010667-47.424 69.141333 0 116.565333 48.576l117.717333 118.293333q47.424 47.424 47.424 116.010667 0 70.293333-50.282667 119.424l50.282667 50.282667q49.152-50.282667 118.848-50.282667 68.565333 0 116.565333 48l118.848 118.848q48 48 48 116.565333z"  /></svg>